<svg xmlns="http://www.w3.org/2000/svg" width="1040" height="1033" viewBox="0 0 1040 1033" version="1.1">
	<path d="M 489 7.081 C 301.976 14.277, 132.206 127.428, 53.258 297.500 C -17.958 450.915, -8.150 626.515, 79.799 772.683 C 95.567 798.889, 108.507 816.769, 128.881 840.500 C 140.280 853.779, 171.483 885, 173.353 885 C 177.248 885, 174.595 881.348, 160.628 867.485 C 134.946 841.994, 118.783 822.694, 97.831 792.500 C 81.875 769.505, 74.064 756.285, 61.914 731.708 C 12.715 632.190, -1.845 521.115, 20.007 412 C 39.861 312.856, 87.683 224.637, 160.160 153.451 C 242.525 72.552, 346.915 23.952, 463.215 12.359 C 487.034 9.985, 533.214 9.979, 556.785 12.346 C 658.164 22.529, 751.098 61.127, 829.178 125.479 C 845.924 139.280, 879.734 172.866, 892.118 188 C 920.718 222.952, 940.166 252.892, 958.048 289.500 C 971.801 317.653, 984.746 351.387, 991.627 377 C 992.294 379.484, 993.210 380.593, 994.783 380.820 C 996.033 381, 997 380.608, 997 379.923 C 997 377.725, 989.885 354.777, 984.777 340.500 C 957.276 263.633, 911.576 194.962, 850.870 139.288 C 801.852 94.332, 746.947 60.808, 684.500 37.705 C 637.258 20.227, 582.666 9.065, 536.535 7.452 C 528.816 7.182, 519.125 6.828, 515 6.665 C 510.875 6.502, 499.175 6.689, 489 7.081 M 587.413 388.824 C 576.146 392.719, 565.185 402.419, 558.601 414.320 C 547.451 434.476, 545.845 463.367, 554.714 484.258 C 560.687 498.329, 571.875 510.686, 583.688 516.263 C 589.702 519.102, 591.495 519.477, 599 519.467 C 608.282 519.456, 614.160 517.426, 623.477 511.016 C 625.974 509.298, 628.458 508.165, 628.997 508.498 C 629.535 508.831, 631.149 511.105, 632.583 513.552 C 634.017 515.998, 635.757 518, 636.450 518 C 638.073 518, 638.984 508.568, 638.993 491.677 C 638.999 480.096, 638.834 478.885, 637.284 479.184 C 636.189 479.395, 634.631 482.047, 632.980 486.507 C 626.098 505.106, 614.829 514.967, 600.429 514.990 C 587.428 515.011, 578.831 507.222, 575.315 492.234 C 572.788 481.466, 572.741 427.676, 575.248 415.837 C 578.957 398.319, 586.089 390.955, 599.500 390.794 C 616.423 390.592, 626.801 400.156, 632.003 420.750 C 632.653 423.322, 633.654 425, 634.539 425 C 635.768 425, 636 422.061, 636 406.500 C 636 390.816, 635.774 388, 634.517 388 C 633.701 388, 631.894 390.250, 630.500 393 C 629.106 395.750, 627.701 398, 627.377 398 C 627.053 398, 625.003 396.587, 622.822 394.859 C 613.310 387.325, 598.869 384.864, 587.413 388.824 M 265 390.881 C 265 392.541, 266.119 392.846, 274.500 393.474 L 284 394.187 284 453 L 284 511.813 274.500 512.526 C 266.119 513.154, 265 513.459, 265 515.119 C 265 516.918, 266.288 517, 294.500 517 C 322.724 517, 324 516.919, 324 515.117 C 324 512.716, 321.406 512.031, 312.250 512.014 L 305 512 305 485 L 305 458 317.912 458 C 339.270 458, 351.206 454.628, 359.198 446.336 C 371.783 433.280, 371.129 411.494, 357.792 399.503 C 347.910 390.618, 338.367 389.043, 294.250 389.017 C 266.277 389.001, 265 389.082, 265 390.881 M 388 391 C 388 392.852, 388.667 393, 397 393 L 406 393 406 453 L 406 513 397 513 C 388.667 513, 388 513.148, 388 515 C 388 516.933, 388.667 517, 408 517 C 427.333 517, 428 516.933, 428 515 C 428 513.148, 427.333 513, 419 513 L 410 513 410.068 451.750 C 410.109 414.297, 410.487 391.277, 411.041 392.500 C 411.539 393.600, 414.853 404.625, 418.404 417 C 421.956 429.375, 428.043 450.525, 431.931 464 C 435.819 477.475, 439.690 491.200, 440.534 494.500 C 441.378 497.800, 443.201 504.241, 444.586 508.813 C 448.770 522.631, 449.007 522.198, 461.452 478 C 470.510 445.834, 486.043 392.624, 486.512 392.155 C 486.780 391.886, 487 418.967, 487 452.333 L 487 513 478 513 C 469.667 513, 469 513.148, 469 515 C 469 516.952, 469.667 517, 497.070 517 L 525.139 517 524.820 514.750 C 524.520 512.639, 523.961 512.482, 515.750 512.211 L 507 511.922 507 453 L 507 394.078 515.750 393.789 C 523.961 393.518, 524.520 393.361, 524.820 391.250 L 525.139 389 504.137 389 C 485.001 389, 483.088 389.155, 482.612 390.750 C 481.884 393.185, 464.626 454.087, 460.862 467.500 C 459.165 473.550, 457.454 478.850, 457.060 479.278 C 456.383 480.014, 452.743 468.093, 444.611 438.500 C 440.246 422.616, 432.078 393.145, 431.377 390.750 C 430.910 389.154, 428.983 389, 409.433 389 C 388.667 389, 388 389.062, 388 391 M 661 390.962 C 661 392.750, 661.823 392.951, 670.250 393.212 L 679.500 393.500 679.500 453 L 679.500 512.500 670.250 512.788 C 661.823 513.049, 661 513.250, 661 515.038 C 661 516.961, 661.986 517, 711.031 517 C 750.170 517, 761.153 516.728, 761.475 515.750 C 761.702 515.063, 762.377 505.985, 762.975 495.578 C 763.838 480.561, 763.804 476.497, 762.810 475.883 C 762.121 475.457, 761.425 475.242, 761.263 475.404 C 761.100 475.567, 759.814 479.677, 758.405 484.539 C 753.883 500.134, 747.776 508.941, 740.093 510.945 C 738.117 511.460, 728.400 512.021, 718.500 512.191 L 700.500 512.500 700.500 453 L 700.500 393.500 710.251 393.500 C 719.698 393.500, 720.003 393.430, 720.001 391.250 L 720 389 690.500 389 C 661.855 389, 661 389.057, 661 390.962 M 312.735 393.765 L 304.970 394.085 305.235 423.792 L 305.500 453.500 317 453.459 C 323.325 453.437, 329.749 453.088, 331.275 452.684 C 335.592 451.541, 341.533 445.510, 344.025 439.742 C 346.804 433.309, 347.802 419.177, 346.067 410.823 C 344.656 404.027, 340.115 397.348, 335.688 395.556 C 331.850 394.002, 323.261 393.332, 312.735 393.765 M 1004.200 399.200 C 1002.215 401.185, 1002.786 402.018, 1007.587 404.141 C 1017.243 408.413, 1017.502 420.581, 1008.018 424.376 C 999.332 427.851, 989.471 425.619, 986.577 419.522 C 983.953 413.991, 984.835 410.693, 990.127 406.240 C 993.062 403.770, 994 400.095, 991.750 399.882 C 987.551 399.484, 984.759 401.596, 981.787 407.419 C 979.273 412.345, 979.988 419.796, 983.487 425.129 C 991.059 436.669, 1012.374 434.975, 1018.878 422.316 C 1019.495 421.114, 1020 417.506, 1020 414.298 C 1020 409.705, 1019.462 407.672, 1017.471 404.743 C 1013.623 399.080, 1007.061 396.339, 1004.200 399.200 M 1023.161 473.306 C 1022.565 474.024, 1021.947 479.087, 1021.789 484.556 L 1021.500 494.500 1004.073 494.774 C 986.194 495.056, 984 495.534, 984 499.147 C 984 502.297, 988.197 503, 1006.994 503 C 1021.900 503, 1025.117 502.740, 1026.429 501.429 C 1027.693 500.165, 1028 497.367, 1028 487.129 C 1028 478.562, 1027.608 474.008, 1026.800 473.200 C 1025.266 471.666, 1024.504 471.688, 1023.161 473.306 M 1020.562 545.900 C 1020.256 546.395, 1019.550 551.200, 1018.992 556.577 C 1018.434 561.955, 1017.746 566.587, 1017.463 566.870 C 1017.180 567.153, 1009.648 566.680, 1000.724 565.818 C 990.606 564.841, 983.841 564.593, 982.750 565.161 C 980.946 566.098, 980.329 570.467, 981.866 571.417 C 982.343 571.712, 991.335 572.736, 1001.849 573.694 C 1015.390 574.928, 1021.276 575.124, 1022.031 574.369 C 1023.292 573.108, 1025.602 549.011, 1024.690 546.635 C 1024.016 544.878, 1021.473 544.425, 1020.562 545.900 M 808.024 563.603 C 784.926 569.810, 771.954 593.428, 779.621 615.316 C 782.893 624.656, 790.386 630.250, 799.479 630.141 C 811.794 629.994, 821.050 620.196, 820.978 607.384 C 820.928 598.471, 812.927 588.711, 804.653 587.471 C 799.784 586.741, 793.944 588.158, 791.958 590.551 C 788.559 594.646, 788.016 589.705, 790.990 581.755 C 792.197 578.531, 794.684 574.764, 797.304 572.192 C 801.469 568.104, 809.839 564, 814.011 564 C 815.105 564, 816 563.550, 816 563 C 816 561.711, 814.702 561.809, 808.024 563.603 M 699.020 564.476 C 698.013 565.689, 695.267 566, 685.569 566 C 677.329 566, 672.823 566.409, 671.654 567.263 C 670.227 568.307, 669.820 570.846, 669.313 581.876 L 668.700 595.225 672.100 594.362 C 677.442 593.007, 684.375 593.518, 687.756 595.515 C 689.463 596.523, 691.669 599.161, 692.676 601.397 C 695.061 606.697, 695.106 618.235, 692.758 622.615 C 689.477 628.735, 679.584 630.873, 673.030 626.877 L 669.561 624.762 672.280 622.594 C 675.326 620.165, 675.789 616.932, 673.429 614.571 C 669.163 610.306, 662.802 615.718, 665.069 621.683 C 667.584 628.297, 672.876 631.299, 681.985 631.281 C 692.683 631.259, 701.024 626.286, 705.100 617.500 C 708.413 610.359, 706.862 603.495, 700.562 597.427 C 695.008 592.076, 689.443 590.515, 678.838 591.333 C 670.864 591.948, 670.785 591.931, 671.376 589.727 C 671.704 588.502, 671.979 584.735, 671.986 581.355 L 672 575.211 683.895 574.855 C 697.289 574.455, 699.444 573.483, 700.600 567.316 C 701.348 563.332, 700.795 562.338, 699.020 564.476 M 754.500 564 C 754.156 564.557, 749.531 565, 744.066 565 C 732.194 565, 728.230 565.702, 726.986 568.026 C 726.467 568.995, 725.736 575.532, 725.361 582.553 L 724.678 595.317 727.089 594.575 C 732.764 592.829, 739.480 592.879, 743 594.695 C 752.766 599.732, 753.972 619.618, 744.913 626.252 C 741.108 629.039, 735.007 629.572, 730.639 627.499 C 726.579 625.573, 725.994 623.609, 729 622 C 731.255 620.793, 731.733 616.133, 729.800 614.200 C 728.117 612.517, 724.436 612.706, 722.571 614.571 C 718.792 618.351, 722.249 626.953, 728.617 629.613 C 732.878 631.394, 744.105 631.401, 748.355 629.625 C 752.591 627.855, 758.697 622.486, 760.551 618.901 C 762.401 615.324, 762.423 605.710, 760.589 602.200 C 758.562 598.319, 754.094 594.354, 749.663 592.503 C 745.470 590.752, 736.402 590.218, 731.210 591.417 L 727.920 592.177 728.210 583.338 L 728.500 574.500 741.204 574 C 748.642 573.707, 754.375 573.032, 755.033 572.371 C 756.596 570.802, 757.560 563, 756.191 563 C 755.601 563, 754.840 563.450, 754.500 564 M 299.359 566.387 C 277.540 574.497, 267.092 596.448, 274.608 618.388 C 278.631 630.134, 291.723 636.100, 302.500 631.100 C 318.262 623.787, 320.830 602.180, 307.087 592.500 C 303.469 589.952, 301.899 589.500, 296.664 589.500 C 291.738 589.500, 289.816 589.988, 287.093 591.930 L 283.687 594.359 284.364 590.125 C 285.361 583.889, 288.690 577.512, 292.966 573.650 C 296.471 570.483, 306.182 566, 309.538 566 C 310.342 566, 311 565.550, 311 565 C 311 563.351, 305.888 563.960, 299.359 566.387 M 584.500 565.441 C 576.415 568.423, 571.272 577.415, 573.952 583.883 C 576.626 590.339, 585.196 590.596, 585.813 584.239 C 586.071 581.574, 585.668 580.806, 583.489 579.813 C 581.443 578.881, 580.423 578.879, 578.939 579.806 C 576.268 581.474, 576 581.346, 576 578.400 C 576 576.776, 577.277 574.523, 579.400 572.400 C 582.424 569.376, 583.395 569, 588.177 569 C 594.694 569, 597.533 570.760, 600.086 576.383 C 602.396 581.468, 602.478 586.024, 600.389 593.068 C 598.941 597.951, 597.369 599.898, 584.831 612.339 C 565.953 631.070, 565.702 630.337, 591.152 630.782 C 601.961 630.971, 611.016 630.760, 611.275 630.313 C 612.386 628.391, 613.103 613, 612.081 613 C 611.499 613, 610.737 614.792, 610.387 616.981 C 610.037 619.171, 609.222 621.401, 608.575 621.938 C 607.449 622.873, 578.315 623.648, 577.433 622.766 C 577.198 622.531, 583.325 616.605, 591.049 609.597 C 598.773 602.588, 606.423 595.018, 608.049 592.773 C 613.502 585.246, 614.207 577.075, 609.879 571.574 C 605.076 565.467, 592.602 562.453, 584.500 565.441 M 196.145 569.946 C 187.031 579.451, 179.977 596.931, 180.017 609.910 C 180.044 618.598, 182.590 628.747, 186.937 637.500 C 190.956 645.591, 196.901 653.748, 200.421 656.001 C 202.135 657.098, 202.100 656.867, 200.101 653.865 C 191.023 640.239, 186.477 618.247, 188.982 600.075 C 190.553 588.678, 194.313 577.221, 198.549 570.928 C 200.476 568.063, 201.840 565.507, 201.579 565.246 C 201.319 564.985, 198.873 567.100, 196.145 569.946 M 386.804 567.750 C 401.751 588.940, 402.980 627.043, 389.443 649.525 C 387.530 652.701, 386.237 655.569, 386.569 655.900 C 387.723 657.049, 396.955 645.454, 400.424 638.500 C 411.436 616.423, 408.279 591.200, 392.007 571.250 C 386.964 565.067, 383.058 562.440, 386.804 567.750 M 473.764 565.943 C 463.083 569.365, 457.735 579.580, 463.073 586.365 C 466.700 590.977, 473.617 589.234, 472.827 583.907 C 472.351 580.701, 469.518 579.195, 466.963 580.791 C 462.316 583.693, 461.404 577.442, 465.829 573.017 C 473.574 565.273, 486.046 568.301, 488.912 578.622 C 490.338 583.757, 490.277 586.761, 488.637 592.212 C 486.574 599.067, 482.244 604.508, 470.105 615.500 C 461.216 623.549, 459.056 626.036, 459.031 628.250 L 459 631 478.864 631 L 498.728 631 499.364 626.360 C 500.301 619.524, 500.138 614, 499 614 C 498.450 614, 498 615.543, 498 617.429 C 498 623.517, 496.671 624, 479.929 624 C 471.256 624, 465 623.605, 465 623.058 C 465 622.540, 470.738 616.859, 477.750 610.433 C 496.089 593.628, 500 588.349, 500 580.400 C 500 575.206, 496.742 570.537, 491.267 567.887 C 486.218 565.443, 478.129 564.544, 473.764 565.943 M 846.250 565.744 C 836.805 566.130, 834.940 568, 844 568 L 850 568 850 597.952 L 850 627.905 843.750 628.260 C 840.313 628.455, 845.375 628.615, 855 628.615 C 864.625 628.615, 869.758 628.457, 866.407 628.264 L 860.313 627.913 859.659 609.206 C 859.300 598.918, 859.004 584.763, 859.003 577.750 C 859 565.135, 858.976 565.002, 856.750 565.204 C 855.513 565.315, 850.788 565.559, 846.250 565.744 M 228.309 567.582 C 223.133 569.490, 217.329 575.731, 216.470 580.310 C 215.222 586.960, 221.538 595.021, 229.289 596.672 C 232.932 597.448, 232.337 598.898, 227.724 600.484 C 219.458 603.326, 215.010 608.582, 215.004 615.516 C 214.998 621.169, 217.931 626.014, 223.433 629.442 C 227.632 632.058, 229.061 632.388, 236.327 632.428 C 250.733 632.505, 259 626.249, 259 615.271 C 259 610.641, 258.570 609.530, 255.437 606.062 C 253.142 603.522, 250.119 601.536, 246.937 600.479 C 244.222 599.577, 242 598.683, 242 598.493 C 242 598.302, 244.463 597.019, 247.474 595.641 C 256.272 591.613, 259.586 584.375, 256.170 576.651 C 252.380 568.083, 238.871 563.686, 228.309 567.582 M 350.358 572.750 C 341.559 584.346, 326 609.870, 326 612.708 C 326 613.695, 328.950 614, 338.500 614 L 351 614 351 621.945 L 351 629.890 346.250 630.265 C 343.637 630.471, 347.800 630.642, 355.500 630.645 C 363.200 630.648, 367.611 630.479, 365.303 630.270 C 361.217 629.900, 361.089 629.779, 360.473 625.669 C 360.125 623.347, 359.988 619.884, 360.170 617.974 C 360.496 614.543, 360.564 614.496, 365.690 614.200 L 370.880 613.900 371.265 618.200 C 371.477 620.565, 371.654 618.450, 371.657 613.500 C 371.661 608.550, 371.486 606.210, 371.269 608.300 L 370.873 612.100 365.687 611.800 L 360.500 611.500 360.231 588.750 L 359.962 566 357.721 566 C 356.126 566, 354.002 567.948, 350.358 572.750 M 526.214 568.123 C 517.832 572.272, 512.400 584.628, 514.924 593.807 C 516.332 598.930, 521.640 605.127, 526.661 607.510 C 531.726 609.913, 540.139 609.157, 543.504 605.996 C 544.872 604.711, 546.261 603.927, 546.589 604.255 C 547.629 605.296, 544.193 615.323, 541.159 620.097 C 537.524 625.818, 533.678 628.598, 525.158 631.662 C 518.767 633.960, 518.681 634.034, 523 633.512 C 533.397 632.257, 547.741 622.417, 553.500 612.590 C 557.040 606.549, 559.332 596.598, 558.725 589.903 C 558.155 583.615, 555.037 575.742, 551.701 572.165 C 545.797 565.836, 534.465 564.039, 526.214 568.123 M 533.374 567.689 C 527.498 568.842, 524.462 578.123, 525.210 592.643 C 525.664 601.446, 527.316 605.276, 531.476 607.171 C 534.822 608.695, 540.024 607.460, 543.906 604.220 C 547.214 601.458, 547.220 601.437, 547.742 590.421 C 548.203 580.699, 548.016 578.825, 546.174 574.660 C 544.601 571.105, 543.212 569.569, 540.573 568.466 C 538.643 567.660, 536.712 567.061, 536.282 567.136 C 535.852 567.211, 534.543 567.460, 533.374 567.689 M 229.924 570.580 C 227.841 572.798, 227.451 574.323, 227.153 581.442 C 226.749 591.093, 228.210 595.016, 232.936 596.974 C 236.597 598.490, 242.114 597.636, 244.306 595.214 C 248.681 590.380, 248.684 576.155, 244.312 570.958 C 242.199 568.447, 241.106 568, 237.085 568 C 233.287 568, 231.868 568.511, 229.924 570.580 M 341.745 587.750 C 333.855 600.280, 328 610.343, 328 611.372 C 328 611.717, 333.175 612, 339.500 612 L 351 612 351 594 C 351 583.592, 350.608 576, 350.072 576 C 349.561 576, 345.814 581.288, 341.745 587.750 M 792.858 591.450 C 790.875 592.798, 788.970 594.635, 788.626 595.532 C 787.601 598.202, 787.926 617.195, 789.067 621.302 C 790.812 627.586, 798.135 630.718, 804.405 627.861 C 808.814 625.853, 810.461 620.740, 810.482 609 C 810.492 603.225, 810.157 597.275, 809.738 595.778 C 807.804 588.871, 799.708 586.796, 792.858 591.450 M 289.500 592.861 C 283.050 596.845, 282.744 597.713, 283.210 610.697 C 283.450 617.380, 284.189 623.633, 284.914 625.111 C 286.213 627.760, 291.652 631.003, 294.784 630.996 C 298.335 630.989, 302.854 627.188, 303.933 623.302 C 305.285 618.432, 305.299 602.618, 303.956 597.779 C 302.140 591.242, 295.680 589.043, 289.500 592.861 M 233.212 600.153 C 224.988 602.463, 222.083 620.191, 228.649 627.995 C 230.917 630.690, 231.768 631, 236.900 631 C 245.821 631, 249 627.034, 249 615.903 C 249 603.694, 242.762 597.471, 233.212 600.153 M 628 609 L 628 613 639.500 613 L 651 613 651 609 L 651 605 639.500 605 L 628 605 628 609 M 423 609.466 L 423 613 434.063 613 L 445.127 613 444.813 609.750 L 444.500 606.500 433.750 606.216 L 423 605.932 423 609.466 M 953.450 671.407 C 946.782 674.311, 941.678 682.982, 941.622 691.500 C 941.554 702.012, 946.239 708.118, 958.551 713.567 C 966.682 717.164, 975.010 716.756, 981.229 712.454 C 987.620 708.033, 991.500 699.685, 991.500 690.355 C 991.500 681.735, 990.598 680.476, 981.974 677.063 C 977.465 675.279, 975.385 674.898, 974.204 675.643 C 972.181 676.919, 966.908 689.596, 967.624 691.462 C 969.159 695.463, 972.624 693.350, 975.350 686.748 C 976.839 683.143, 977.009 683.044, 979.700 684.194 C 984.747 686.351, 985.245 687.116, 984.757 691.961 C 983.667 702.803, 977.689 708.530, 968.378 707.653 C 954.415 706.339, 945.494 695.313, 950.089 685.050 C 951.882 681.044, 954.131 679.524, 961.490 677.344 C 965.013 676.301, 966.003 673.206, 963.418 671.316 C 961.151 669.659, 957.384 669.693, 953.450 671.407 M 918.750 742.080 C 914.620 744.486, 916.942 746.896, 932.736 756.598 C 938.916 760.394, 943.979 764.021, 943.986 764.657 C 943.996 765.511, 938.911 765.673, 924.509 765.277 C 903.341 764.694, 902 764.969, 902 769.898 C 902 772.249, 904.014 773.816, 919.750 783.705 C 929.513 789.840, 938.680 795.308, 940.123 795.857 C 943.089 796.985, 945 795.783, 945 792.790 C 945 790.878, 943.199 789.486, 928 779.649 L 918.500 773.500 937.946 773.228 C 954.271 772.999, 957.681 772.693, 959.196 771.323 C 961.478 769.258, 961.498 766.750, 959.250 764.765 C 957.113 762.879, 921.918 740.988, 921.090 741.030 C 920.766 741.047, 919.712 741.519, 918.750 742.080 M 869.569 812.326 C 868.378 813.197, 867.971 814.332, 868.383 815.633 C 868.981 817.517, 895.975 841.972, 901.327 845.479 C 904.309 847.433, 908 846.135, 908 843.133 C 908 840.955, 874.452 811, 872.013 811 C 871.666 811, 870.566 811.597, 869.569 812.326 M 835.311 851.113 C 826.935 858.275, 814 871.213, 814 872.429 C 814 874, 816.086 876, 817.722 876 C 818.450 876, 820.997 874.200, 823.384 872 C 825.771 869.800, 828.188 868, 828.756 868 C 829.324 868, 835.557 874.300, 842.606 882 C 849.656 889.700, 856.139 896, 857.012 896 C 859.144 896, 861 894.019, 861 891.743 C 861 890.721, 855.140 883.524, 847.978 875.749 L 834.957 861.613 839.478 857.022 C 844.101 852.328, 845.238 848.689, 842.418 847.607 C 840.224 846.765, 840.631 846.564, 835.311 851.113 M 207.682 882.260 C 202.116 887.909, 181.889 915.180, 182.177 916.646 C 182.609 918.840, 185.348 920.464, 187.331 919.703 C 188.212 919.365, 191.046 916.368, 193.627 913.044 C 196.209 909.720, 198.792 907, 199.367 907 C 199.942 907, 203.045 908.846, 206.262 911.103 C 215.963 917.907, 223.497 917.439, 229.117 909.680 C 232.423 905.116, 232.997 898.869, 230.446 895.226 C 228.707 892.743, 214.496 881.726, 211.694 880.689 C 210.505 880.248, 209.136 880.784, 207.682 882.260 M 208.038 894.566 C 205.727 897.627, 204.066 900.729, 204.346 901.460 C 205.188 903.655, 211.451 907.940, 214.793 908.609 C 217.394 909.129, 218.431 908.722, 220.960 906.194 C 225.422 901.731, 225.034 898.602, 219.361 893.320 C 216.810 890.944, 214.164 889, 213.481 889 C 212.799 889, 210.349 891.504, 208.038 894.566 M 773.412 893.494 C 772.912 895.486, 774.418 898.510, 780.893 908.517 C 788.361 920.058, 789.899 923, 788.464 923 C 788.169 923, 780.392 919.400, 771.182 915 C 753.038 906.332, 749.425 905.459, 748.411 909.498 C 748.066 910.872, 748.012 912.589, 748.291 913.315 C 749.638 916.827, 772.172 950.129, 773.562 950.662 C 774.438 950.998, 775.893 950.535, 776.795 949.633 C 779.040 947.388, 777.952 944.797, 768.987 931.048 C 764.999 924.933, 761.920 919.747, 762.143 919.524 C 762.366 919.300, 769.963 922.676, 779.025 927.024 C 788.086 931.373, 796.705 934.946, 798.179 934.965 C 801.476 935.008, 804.132 932.544, 803.294 930.221 C 802.581 928.244, 783.999 899.127, 780.338 894.250 C 777.385 890.317, 774.294 889.979, 773.412 893.494 M 264.236 939.508 C 259.706 948.587, 256 956.657, 256 957.440 C 256 959.452, 259.788 960.421, 261.640 958.884 C 262.489 958.179, 265.870 952.244, 269.153 945.695 C 272.436 939.146, 275.339 934.005, 275.604 934.270 C 275.869 934.536, 275.116 939.196, 273.930 944.626 C 272.744 950.057, 271.552 956.994, 271.282 960.042 C 270.815 965.300, 270.928 965.646, 273.490 966.814 C 276.005 967.959, 276.443 967.780, 279.846 964.215 C 281.856 962.109, 285.574 957.936, 288.109 954.943 C 296.729 944.765, 297.937 943.499, 297.968 944.612 C 297.986 945.223, 295.288 951.462, 291.973 958.476 C 287.256 968.456, 286.195 971.530, 287.095 972.614 C 290.112 976.250, 291.843 974.290, 299.994 958.012 C 304.397 949.218, 308 941.134, 308 940.047 C 308 938.079, 306.476 936.892, 301.542 935.016 C 298.567 933.885, 297.592 934.681, 287.492 946.500 C 278.594 956.912, 278.998 956.587, 279.013 953.321 C 279.020 951.770, 279.914 946.225, 281 941 C 283.827 927.393, 283.721 926.199, 279.532 924.449 C 273.094 921.759, 273.088 921.766, 264.236 939.508 M 700.151 935.121 C 699.497 936.888, 701.189 941.534, 707.978 956.618 C 712.742 967.201, 717.243 976.588, 717.982 977.478 C 718.721 978.368, 720.218 978.962, 721.310 978.798 C 726.033 978.089, 725.580 976.062, 715.866 954.429 C 707.181 935.087, 706.260 933.476, 703.727 933.183 C 701.635 932.941, 700.788 933.400, 700.151 935.121 M 638.537 958.959 C 637.109 960.537, 636.501 964.377, 635.413 978.709 C 633.494 1003.969, 633.557 1007.692, 635.928 1008.961 C 640.068 1011.177, 641.961 1008.342, 641.986 999.886 L 642 995.273 651.631 992.540 C 657.399 990.903, 661.511 990.191, 661.881 990.764 C 667.804 999.931, 669.824 1001.512, 672.876 999.374 C 674.044 998.556, 675 997.337, 675 996.665 C 675 995.993, 671.962 991.378, 668.250 986.409 C 645.418 955.850, 646.441 957, 642.073 957 C 641.103 957, 639.512 957.882, 638.537 958.959 M 356.401 962.842 C 351.480 965.153, 348.719 968.786, 346.779 975.500 C 344.168 984.539, 346.034 991.654, 352.249 996.356 C 356.031 999.218, 362.454 1001.142, 366.599 1000.656 C 373.091 999.895, 379.605 994.381, 378.821 990.311 C 378.229 987.237, 375.278 987.727, 371.819 991.475 C 367.390 996.272, 362.800 997.042, 358 993.795 C 353.149 990.513, 351.737 985.909, 353.395 978.777 C 354.809 972.693, 357.352 968.671, 360.797 967.068 C 366.641 964.351, 374.271 967.403, 375.488 972.945 C 376.311 976.694, 378.337 978.345, 381.057 977.482 C 382.830 976.919, 383.104 976.272, 382.613 973.815 C 381.795 969.725, 378.457 965.288, 374.759 963.375 C 369.833 960.828, 361.223 960.578, 356.401 962.842 M 643.669 968.420 C 642.752 970.811, 642.728 988.507, 643.643 988.393 C 646.347 988.054, 654.679 985.552, 655.684 984.777 C 656.540 984.117, 655.195 981.525, 650.837 975.432 C 647.520 970.794, 644.673 967, 644.510 967 C 644.347 967, 643.969 967.639, 643.669 968.420 M 429.641 976.250 C 427.743 979.290, 423.376 1013.776, 424.719 1015.119 C 425.272 1015.672, 431.627 1016.869, 438.843 1017.781 C 449.201 1019.089, 452.221 1019.179, 453.188 1018.212 C 455.528 1015.872, 451.841 1014.035, 442.455 1012.864 C 437.530 1012.249, 433.162 1011.443, 432.749 1011.072 C 432.335 1010.701, 432.898 1003.923, 433.999 996.010 C 436.439 978.466, 436.499 975.405, 434.418 974.607 C 431.856 973.624, 431.124 973.876, 429.641 976.250 M 564 977.956 C 553.903 979.051, 553.001 979.532, 552.991 983.817 C 552.975 990.650, 556.129 1022.481, 557.047 1024.750 C 558.158 1027.496, 562.513 1027.817, 563.821 1025.250 C 564.324 1024.263, 564.365 1020.020, 563.916 1015.522 C 563.011 1006.466, 563.265 1006.039, 569.572 1006.015 C 575.156 1005.994, 582.265 1003.412, 585.124 1000.366 C 589.670 995.522, 587.768 982.086, 582.108 979.058 C 579.573 977.702, 571.097 977.186, 564 977.956 M 566.500 983.907 L 561.500 984.500 561.857 991.500 C 562.054 995.350, 562.610 998.988, 563.092 999.585 C 564.355 1001.145, 574.731 999.553, 577.064 997.442 C 578.101 996.504, 579.205 994.929, 579.519 993.942 C 580.427 991.078, 577.403 985.104, 574.483 983.994 C 573.046 983.447, 571.787 983.071, 571.685 983.157 C 571.583 983.244, 569.250 983.581, 566.500 983.907" stroke="none" fill="#000000" fill-rule="evenodd"/>
</svg>